ffmpeg version 2.1.1 Copyright (c) 2000-2013 the FFmpeg developers
  built on Dec 20 2014 10:34:55 with gcc 4.7 (Debian 4.7.2-5)
  configuration: --enable-gpl --enable-nonfree --enable-postproc --enable-pthreads --enable-x11grab --enable-swscale --enable-version3 --enable-shared --disable-yasm --enable-filter=movie --enable-frei0r --enable-libdc1394 --enable-libfaac --enable-libmp3lame --enable-libx264 --enable-libxvid --enable-libfreetype --enable-libvorbis --enable-libgsm --enable-libopencore-amrnb --enable-libopencore-amrwb --enable-libopenjpeg --enable-librtmp --enable-libschroedinger --enable-libspeex --enable-libtheora --enable-libvpx --enable-libvo-amrwbenc --enable-libvo-aacenc --enable-libaacplus --enable-libxavs --enable-bzlib --enable-openssl --enable-gnutls --enable-openal --enable-libv4l2 --enable-libpulse --enable-libmodplug --enable-libass --enable-libcdio --enable-vdpau --enable-libbluray
  libavutil      52. 48.101 / 52. 48.101
  libavcodec     55. 39.101 / 55. 39.101
  libavformat    55. 19.104 / 55. 19.104
  libavdevice    55.  5.100 / 55.  5.100
  libavfilter     3. 90.100 /  3. 90.100
  libswscale      2.  5.101 /  2.  5.101
  libswresample   0. 17.104 /  0. 17.104
  libpostproc    52.  3.100 / 52.  3.100
Input #0, avi, from '/var/www/business-supermarket.com/web/www/temp/0350354001426526415.avi':
  Duration: 00:00:03.37, start: 0.000000, bitrate: 72135 kb/s
    Stream #0:0: Video: mjpeg (MJPG / 0x47504A4D), yuvj422p(pc), 1920x1080, 30 tbr, 30 tbn, 30 tbc
    Metadata:
      title           : JSZTactics.avi Video #1
Please use -b:a or -b:v, -b is ambiguous
Codec AVOption ab (set bitrate (in bits/s)) specified for output file #0 (/var/www/business-supermarket.com/web/www/upload/users/updesigns_940/videos/0350354001426526415.flv) has not been used for any stream. The most likely reason is either wrong type (e.g. a video option with no video streams) or that it is a private option of some encoder which was not actually used for any stream.
[swscaler @ 0x1c31fa0] deprecated pixel format used, make sure you did set range correctly
Output #0, flv, to '/var/www/business-supermarket.com/web/www/upload/users/updesigns_940/videos/0350354001426526415.flv':
  Metadata:
    encoder         : Lavf55.19.104
    Stream #0:0: Video: flv1 (flv) ([2][0][0][0] / 0x0002), yuv420p, 512x384, q=2-31, 1000 kb/s, 1k tbn, 30 tbc
    Metadata:
      title           : JSZTactics.avi Video #1
Stream mapping:
  Stream #0:0 -> #0:0 (mjpeg -> flv)
Press [q] to stop, [?] for help
frame=   14 fps=0.0 q=2.5 size=     101kB time=00:00:00.46 bitrate=1773.5kbits/s    frame=   29 fps= 28 q=3.6 size=     194kB time=00:00:00.96 bitrate=1640.5kbits/s    frame=   44 fps= 28 q=3.3 size=     266kB time=00:00:01.46 bitrate=1484.6kbits/s    frame=   58 fps= 28 q=3.2 size=     327kB time=00:00:01.93 bitrate=1387.6kbits/s    frame=   71 fps= 27 q=2.5 size=     380kB time=00:00:02.36 bitrate=1315.1kbits/s    frame=   84 fps= 27 q=2.0 size=     419kB time=00:00:02.80 bitrate=1224.8kbits/s    frame=   96 fps= 26 q=2.0 size=     441kB time=00:00:03.20 bitrate=1127.8kbits/s    frame=  101 fps= 26 q=2.0 Lsize=     461kB time=00:00:03.36 bitrate=1122.5kbits/s    
video:460kB audio:0kB subtitle:0 global headers:0kB muxing overhead 0.388445%
